PathFileType	4	(X/Y/Z)	C:\Data Capture\Research\archery\Archery pilot2.trc
DataRate	CameraRate	NumFrames	NumMarkers	Units	OrigDataRate	OrigDataStartFrame	OrigNumFrames
100.00	100.00	      96	3	mm	100.00	1126	      1500
Frame#	Time	Marker 1			Marker 2			Marker 3			
		X1	Y1	Z1	X2	Y2	Z2	X3	Y3	Z3	

1126	11.250	225.69923	439.20920	732.75275	181.79605	411.15903	647.16187	100.56010	371.84872	716.20874	
1127	11.260	226.46637	439.38718	733.14746	182.63501	411.27808	647.42126	101.45038	371.88919	716.39001	
1128	11.270	227.23697	439.53629	733.55353	183.48743	411.40976	647.68658	102.31805	371.95798	716.57928	
1129	11.280	227.99194	439.65527	733.95056	184.34412	411.55167	647.95068	103.15528	372.05548	716.76367	
1130	11.290	228.71384	439.75061	734.32373	185.18810	411.70239	648.20453	103.95645	372.18057	716.92645	
1131	11.300	229.39519	439.83267	734.66492	186.00002	411.86285	648.43823	104.71227	372.32736	717.05768	
1132	11.310	230.03731	439.91180	734.96973	186.76498	412.03632	648.64496	105.41050	372.48691	717.16046	
1133	11.320	230.64240	440.00006	735.23456	187.47360	412.22763	648.82361	106.04538	372.65002	717.24780	
1134	11.330	231.20660	440.11365	735.45721	188.11934	412.43967	648.97864	106.62365	372.80762	717.33356	
1135	11.340	231.72093	440.26862	735.63953	188.69743	412.66858	649.11633	107.15730	372.94827	717.42444	
1136	11.350	232.17749	440.47180	735.78723	189.20639	412.90244	649.24103	107.65379	373.05942	717.51910	
1137	11.360	232.57303	440.71759	735.90582	189.64951	413.12607	649.35352	108.11646	373.13474	717.61145	
1138	11.370	232.90814	440.99316	735.99884	190.03345	413.32861	649.45172	108.54816	373.18066	717.69312	
1139	11.380	233.18660	441.28619	736.06970	190.36520	413.50729	649.53198	108.95008	373.21359	717.75720	
1140	11.390	233.41441	441.58932	736.12439	190.65094	413.66827	649.59155	109.32175	373.25134	717.80164	
1141	11.400	233.59729	441.90042	736.16949	190.89764	413.82513	649.63110	109.66512	373.30823	717.82941	
1142	11.410	233.73927	442.22113	736.20947	191.11533	413.99487	649.65509	109.98476	373.39349	717.84491	
1143	11.420	233.84464	442.55508	736.24579	191.31693	414.19284	649.67041	110.28428	373.50974	717.85052	
1144	11.430	233.91965	442.90488	736.27789	191.51328	414.42776	649.68335	110.56455	373.65192	717.84509	
1145	11.440	233.97134	443.26935	736.30383	191.70641	414.69901	649.69836	110.82501	373.80988	717.82611	
1146	11.450	234.00507	443.64468	736.32129	191.88951	414.99966	649.71838	111.06644	373.97437	717.79321	
1147	11.460	234.02296	444.02826	736.32782	192.05240	415.32120	649.74396	111.29218	374.13919	717.74969	
1148	11.470	234.02327	444.42102	736.32117	192.18460	415.65521	649.77271	111.50676	374.29855	717.70148	
1149	11.480	234.00163	444.82886	736.30121	192.27591	415.99518	649.79956	111.71320	374.44571	717.65399	
1150	11.490	233.95564	445.26266	736.27356	192.32074	416.33926	649.81976	111.90990	374.57346	717.61041	
1151	11.500	233.88797	445.73453	736.24823	192.32368	416.69064	649.83215	112.09070	374.67603	717.57214	
1152	11.510	233.80681	446.25308	736.23456	192.30017	417.05399	649.84021	112.24857	374.75073	717.53949	
1153	11.520	233.72527	446.82275	736.23682	192.27106	417.43048	649.84845	112.37870	374.79907	717.51166	
1154	11.530	233.65768	447.44638	736.25317	192.25659	417.81638	649.85846	112.47884	374.82571	717.48816	
1155	11.540	233.61586	448.12805	736.27826	192.27470	418.20529	649.86951	112.54959	374.83728	717.47015	
1156	11.550	233.61079	448.87378	736.30560	192.33980	418.59210	649.88171	112.59646	374.84177	717.45990	
1157	11.560	233.65269	449.68518	736.33002	192.45769	418.97430	649.89777	112.63051	374.84830	717.46045	
1158	11.570	233.74194	450.54352	736.35059	192.62100	419.34930	649.92084	112.66694	374.86707	717.47552	
1159	11.580	233.86125	451.39569	736.37421	192.81151	419.71356	649.95404	112.72280	374.90860	717.50970	
1160	11.590	233.98358	452.16980	736.41248	193.00862	420.06580	649.99957	112.81473	374.98257	717.56720	
1161	11.600	234.09079	452.81268	736.47437	193.19794	420.40994	650.05713	112.95549	375.09534	717.65015	
1162	11.610	234.18547	453.30795	736.56531	193.37479	420.75314	650.12262	113.14889	375.24588	717.75562	
1163	11.620	234.28424	453.66562	736.68976	193.54198	421.10193	650.19086	113.38499	375.42270	717.87256	
1164	11.630	234.39873	453.90790	736.84564	193.70503	421.45782	650.25763	113.64190	375.60727	717.98395	
1165	11.640	234.52255	454.06229	737.01672	193.87003	421.81506	650.32068	113.89542	375.78384	718.07330	
1166	11.650	234.63860	454.15649	737.17938	194.04311	422.16306	650.37915	114.12954	375.94626	718.13110	
1167	11.660	234.73505	454.21390	737.31799	194.22726	422.49066	650.43256	114.34064	376.09818	718.15460	
1168	11.670	234.81104	454.25229	737.42969	194.41728	422.78763	650.48071	114.53441	376.24860	718.14587	
1169	11.680	234.87088	454.28516	737.51831	194.59915	423.04425	650.52325	114.72021	376.40640	718.11005	
1170	11.690	234.91888	454.32236	737.58948	194.75609	423.25369	650.55920	114.90639	376.57507	718.05530	
1171	11.700	234.95746	454.37091	737.64948	194.87610	423.41589	650.58679	115.09517	376.74957	717.99268	
1172	11.710	234.98709	454.43781	737.70428	194.95509	423.53760	650.60352	115.27917	376.91769	717.93494	
1173	11.720	235.00641	454.53207	737.75964	194.99533	423.62936	650.60889	115.44479	377.06540	717.89337	
1174	11.730	235.01187	454.66476	737.82080	195.00377	423.70300	650.60675	115.58158	377.18234	717.87396	
1175	11.740	234.99724	454.84653	737.89081	194.99118	423.77078	650.60461	115.68863	377.26492	717.87708	
1176	11.750	234.95352	455.08362	737.96857	194.97163	423.84525	650.61035	115.77393	377.31564	717.89874	
1177	11.760	234.87091	455.37439	738.04858	194.96014	423.93808	650.62958	115.85104	377.34055	717.93274	
1178	11.770	234.74364	455.70840	738.12372	194.96909	424.05682	650.66406	115.93559	377.34714	717.97156	
1179	11.780	234.57629	456.06573	738.18854	195.00560	424.20093	650.71124	116.04175	377.34323	718.00659	
1180	11.790	234.38686	456.41660	738.24042	195.07108	424.35950	650.76428	116.17841	377.33551	718.02991	
1181	11.800	234.20087	456.72849	738.27863	195.16183	424.51559	650.81519	116.34608	377.32861	718.03638	
1182	11.810	234.04086	456.97891	738.30414	195.27121	424.65466	650.85834	116.53766	377.32413	718.02490	
1183	11.820	233.92139	457.16025	738.31909	195.39168	424.76929	650.89288	116.74225	377.32104	717.99725	
1184	11.830	233.84889	457.27530	738.32678	195.51639	424.85864	650.92096	116.94726	377.31686	717.95721	
1185	11.840	233.82280	457.33304	738.33081	195.64122	424.92606	650.94647	117.13921	377.30988	717.90955	
1186	11.850	233.83792	457.34583	738.33484	195.76570	424.97568	650.97314	117.30661	377.30069	717.85895	
1187	11.860	233.88580	457.32687	738.34216	195.89073	425.00970	651.00366	117.44321	377.29175	717.80945	
1188	11.870	233.95493	457.28806	738.35535	196.01631	425.02780	651.03925	117.54972	377.28525	717.76349	
1189	11.880	234.03255	457.23895	738.37616	196.14290	425.02914	651.08057	117.63382	377.28265	717.72211	
1190	11.890	234.10715	457.18640	738.40527	196.27396	425.01434	651.12872	117.70833	377.28528	717.68524	
1191	11.900	234.16934	457.13474	738.44202	196.41422	424.98660	651.18420	117.78690	377.29474	717.65314	
1192	11.910	234.21245	457.08609	738.48523	196.56438	424.95169	651.24536	117.87835	377.31177	717.62616	
1193	11.920	234.23387	457.04047	738.53479	196.71782	424.91626	651.30768	117.98197	377.33536	717.60431	
1194	11.930	234.23534	456.99622	738.59155	196.86375	424.88531	651.36572	118.08791	377.36243	717.58661	
1195	11.940	234.22118	456.95093	738.65613	196.99329	424.86102	651.41583	118.18332	377.38889	717.57043	
1196	11.950	234.19681	456.90302	738.72729	197.10226	424.84317	651.45789	118.25903	377.41144	717.55182	
1197	11.960	234.16727	456.85260	738.80145	197.18979	424.82904	651.49432	118.31131	377.42819	717.52667	
1198	11.970	234.13600	456.80023	738.87390	197.25552	424.81390	651.52911	118.33943	377.43808	717.49249	
1199	11.980	234.10464	456.74469	738.94104	197.29857	424.79153	651.56543	118.34297	377.43994	717.44952	
1200	11.990	234.07239	456.68301	739.00232	197.31844	424.75504	651.60406	118.31983	377.43188	717.40192	
1201	12.000	234.03490	456.61227	739.06122	197.31532	424.69894	651.64355	118.26492	377.41052	717.35681	
1202	12.010	233.98502	456.53094	739.12421	197.28908	424.62143	651.68231	118.17154	377.37152	717.32098	
1203	12.020	233.91617	456.43915	739.19714	197.23781	424.52484	651.71899	118.03677	377.31204	717.29755	
1204	12.030	233.82672	456.33893	739.28265	197.15735	424.41434	651.75275	117.86726	377.23306	717.28534	
1205	12.040	233.72087	456.23364	739.37848	197.04189	424.29584	651.78363	117.67841	377.13870	717.27911	
1206	12.050	233.60487	456.12506	739.47577	196.88605	424.17413	651.81232	117.48540	377.03284	717.27081	
1207	12.060	233.48169	456.00998	739.55890	196.68787	424.05127	651.83783	117.29498	376.91696	717.25287	
1208	12.070	233.34955	455.87961	739.60986	196.45364	423.92758	651.85681	117.10525	376.79184	717.22076	
1209	12.080	233.20517	455.72226	739.61652	196.20125	423.80402	651.86627	116.90997	376.65814	717.17456	
1210	12.090	233.04625	455.52789	739.57751	195.95636	423.68216	651.86658	116.70216	376.51575	717.11945	
1211	12.100	232.87210	455.29428	739.50159	195.74208	423.56253	651.86194	116.47755	376.36493	717.06464	
1212	12.110	232.68532	455.03174	739.40479	195.57025	423.44165	651.85803	116.23775	376.20932	717.02100	
1213	12.120	232.49243	454.75934	739.30621	195.43910	423.31076	651.85913	115.98779	376.05460	716.99695	
1214	12.130	232.30066	454.49402	739.22101	195.33650	423.15854	651.86725	115.72895	375.90179	716.99463	
1215	12.140	232.11440	454.24310	739.15723	195.24548	422.97644	651.88330	115.45503	375.74234	717.01031	
1216	12.150	231.93483	454.00562	739.11639	195.14970	422.76227	651.90747	115.15230	375.55789	717.03888	
1217	12.160	231.76135	453.77704	739.09705	195.03735	422.52069	651.93823	114.79922	375.32260	717.07672	
1218	12.170	231.59424	453.55432	739.09814	194.90263	422.26227	651.97186	114.37141	375.00809	717.12030	
1219	12.180	231.43692	453.34006	739.12061	194.74461	422.00018	652.00421	113.85270	374.59094	717.16370	
1220	12.190	231.29581	453.14200	739.16669	194.56573	421.74545	652.03412	113.24428	374.06100	717.19971	
1221	12.200	231.17639	452.96677	739.23859	194.37100	421.50507	652.06335	112.57185	373.43433	717.22382	
